<mxfile host="app.diagrams.net" modified="2024-05-15T13:08:09.868Z" agent="Mozilla/5.0 (Windows NT 10.0; Win64; x64) AppleWebKit/537.36 (KHTML, like Gecko) Chrome/124.0.0.0 Safari/537.36" etag="r5UPJ8zIPvcQVQ4Eq9Cg" version="24.4.0" type="device">
  <diagram name="Page-1" id="DRH_Kga1Qh9RQqdpzFjf">
    <mxGraphModel dx="1600" dy="1951" grid="1" gridSize="10" guides="1" tooltips="1" connect="1" arrows="1" fold="1" page="1" pageScale="1" pageWidth="850" pageHeight="1100" math="0" shadow="0">
      <root>
        <mxCell id="0" />
        <mxCell id="1" parent="0" />
        <mxCell id="bNcm69bRMnOpm-9xotE5-3" value="Student" style="shape=umlActor;verticalLabelPosition=bottom;verticalAlign=top;html=1;" parent="1" vertex="1">
          <mxGeometry x="40" y="120" width="70" height="130" as="geometry" />
        </mxCell>
        <mxCell id="bNcm69bRMnOpm-9xotE5-4" value="Admin" style="shape=umlActor;verticalLabelPosition=bottom;verticalAlign=top;html=1;" parent="1" vertex="1">
          <mxGeometry x="720" y="262.18" width="70" height="132.82" as="geometry" />
        </mxCell>
        <mxCell id="bNcm69bRMnOpm-9xotE5-5" value="" style="rounded=0;whiteSpace=wrap;html=1;rotation=90;" parent="1" vertex="1">
          <mxGeometry x="47.58" y="95.95" width="771.03" height="465.36" as="geometry" />
        </mxCell>
        <mxCell id="bNcm69bRMnOpm-9xotE5-6" value="Access Material" style="ellipse;whiteSpace=wrap;html=1;" parent="1" vertex="1">
          <mxGeometry x="365" y="539.9999999999999" width="160" height="57.18" as="geometry" />
        </mxCell>
        <mxCell id="bNcm69bRMnOpm-9xotE5-15" value="EduHub" style="strokeWidth=1;shadow=0;dashed=0;align=center;html=1;shape=mxgraph.mockup.text.textBox;fontColor=#666666;align=left;fontSize=17;spacingLeft=4;spacingTop=-3;strokeColor=none;mainText=;whiteSpace=wrap;labelBorderColor=none;fontStyle=1" parent="1" vertex="1">
          <mxGeometry x="396.57" y="-50" width="80" height="30" as="geometry" />
        </mxCell>
        <mxCell id="bNcm69bRMnOpm-9xotE5-24" value="Manage Notice Board" style="ellipse;whiteSpace=wrap;html=1;" parent="1" vertex="1">
          <mxGeometry x="356.57" y="170" width="160" height="57.18" as="geometry" />
        </mxCell>
        <mxCell id="bNcm69bRMnOpm-9xotE5-25" value="Manage Images" style="ellipse;whiteSpace=wrap;html=1;" parent="1" vertex="1">
          <mxGeometry x="450" y="270" width="160" height="57.18" as="geometry" />
        </mxCell>
        <mxCell id="bNcm69bRMnOpm-9xotE5-26" value="Feedback&amp;nbsp;" style="ellipse;whiteSpace=wrap;html=1;" parent="1" vertex="1">
          <mxGeometry x="356.57" y="-10.000000000000057" width="160" height="57.18" as="geometry" />
        </mxCell>
        <mxCell id="bNcm69bRMnOpm-9xotE5-27" value="Manage Events" style="ellipse;whiteSpace=wrap;html=1;" parent="1" vertex="1">
          <mxGeometry x="365" y="460" width="160" height="57.18" as="geometry" />
        </mxCell>
        <mxCell id="bNcm69bRMnOpm-9xotE5-28" value="Respond Feedback" style="ellipse;whiteSpace=wrap;html=1;" parent="1" vertex="1">
          <mxGeometry x="356.57" y="79.99999999999999" width="160" height="57.18" as="geometry" />
        </mxCell>
        <mxCell id="bNcm69bRMnOpm-9xotE5-31" value="" style="endArrow=none;html=1;rounded=0;entryX=0.085;entryY=0.245;entryDx=0;entryDy=0;entryPerimeter=0;" parent="1" target="bNcm69bRMnOpm-9xotE5-6" edge="1">
          <mxGeometry width="50" height="50" relative="1" as="geometry">
            <mxPoint x="120" y="210" as="sourcePoint" />
            <mxPoint x="450" y="290" as="targetPoint" />
          </mxGeometry>
        </mxCell>
        <mxCell id="bNcm69bRMnOpm-9xotE5-32" value="" style="endArrow=none;html=1;rounded=0;entryX=1;entryY=0.525;entryDx=0;entryDy=0;entryPerimeter=0;" parent="1" target="bNcm69bRMnOpm-9xotE5-6" edge="1">
          <mxGeometry width="50" height="50" relative="1" as="geometry">
            <mxPoint x="710" y="380" as="sourcePoint" />
            <mxPoint x="510" y="120" as="targetPoint" />
          </mxGeometry>
        </mxCell>
        <mxCell id="bNcm69bRMnOpm-9xotE5-33" value="" style="endArrow=none;html=1;rounded=0;exitX=1;exitY=0.5;exitDx=0;exitDy=0;" parent="1" source="bNcm69bRMnOpm-9xotE5-24" edge="1">
          <mxGeometry width="50" height="50" relative="1" as="geometry">
            <mxPoint x="400" y="340" as="sourcePoint" />
            <mxPoint x="710" y="290" as="targetPoint" />
          </mxGeometry>
        </mxCell>
        <mxCell id="bNcm69bRMnOpm-9xotE5-34" value="" style="endArrow=none;html=1;rounded=0;exitX=1;exitY=0.5;exitDx=0;exitDy=0;" parent="1" source="bNcm69bRMnOpm-9xotE5-25" edge="1">
          <mxGeometry width="50" height="50" relative="1" as="geometry">
            <mxPoint x="400" y="340" as="sourcePoint" />
            <mxPoint x="710" y="310" as="targetPoint" />
          </mxGeometry>
        </mxCell>
        <mxCell id="bNcm69bRMnOpm-9xotE5-38" value="" style="endArrow=none;html=1;rounded=0;" parent="1" edge="1">
          <mxGeometry width="50" height="50" relative="1" as="geometry">
            <mxPoint x="120" y="170" as="sourcePoint" />
            <mxPoint x="360" y="10" as="targetPoint" />
          </mxGeometry>
        </mxCell>
        <mxCell id="VA9Px5XT123htjMnHplL-1" value="" style="endArrow=none;html=1;rounded=0;exitX=0.964;exitY=0.308;exitDx=0;exitDy=0;exitPerimeter=0;" parent="1" source="bNcm69bRMnOpm-9xotE5-27" edge="1">
          <mxGeometry width="50" height="50" relative="1" as="geometry">
            <mxPoint x="525" y="259" as="sourcePoint" />
            <mxPoint x="710" y="350" as="targetPoint" />
          </mxGeometry>
        </mxCell>
        <mxCell id="VA9Px5XT123htjMnHplL-2" value="" style="endArrow=none;html=1;rounded=0;exitX=1;exitY=0.5;exitDx=0;exitDy=0;" parent="1" source="bNcm69bRMnOpm-9xotE5-28" edge="1">
          <mxGeometry width="50" height="50" relative="1" as="geometry">
            <mxPoint x="530" y="330" as="sourcePoint" />
            <mxPoint x="710" y="270" as="targetPoint" />
          </mxGeometry>
        </mxCell>
        <mxCell id="w96OVsFz25aIXLMRuTK5-2" value="" style="endArrow=none;html=1;rounded=0;exitX=1;exitY=0;exitDx=0;exitDy=0;" parent="1" source="OVYkTUFSf-rV6GSuppvb-3" edge="1">
          <mxGeometry width="50" height="50" relative="1" as="geometry">
            <mxPoint x="500" y="384" as="sourcePoint" />
            <mxPoint x="710" y="330" as="targetPoint" />
          </mxGeometry>
        </mxCell>
        <mxCell id="Phya763Lx_zeTAAvGKp9-2" value="Faculty" style="shape=umlActor;verticalLabelPosition=bottom;verticalAlign=top;html=1;" parent="1" vertex="1">
          <mxGeometry x="40" y="400" width="70" height="132.82" as="geometry" />
        </mxCell>
        <mxCell id="Phya763Lx_zeTAAvGKp9-3" value="Manage Course Material" style="ellipse;whiteSpace=wrap;html=1;" parent="1" vertex="1">
          <mxGeometry x="365" y="620" width="160" height="57.18" as="geometry" />
        </mxCell>
        <mxCell id="O_VZQvmiDv8Mf1Sd_br--1" value="" style="endArrow=none;html=1;rounded=0;entryX=0;entryY=0.5;entryDx=0;entryDy=0;" parent="1" target="Phya763Lx_zeTAAvGKp9-3" edge="1">
          <mxGeometry width="50" height="50" relative="1" as="geometry">
            <mxPoint x="110" y="500" as="sourcePoint" />
            <mxPoint x="370" y="475" as="targetPoint" />
          </mxGeometry>
        </mxCell>
        <mxCell id="O_VZQvmiDv8Mf1Sd_br--2" value="" style="endArrow=none;html=1;rounded=0;entryX=0;entryY=0.5;entryDx=0;entryDy=0;" parent="1" target="bNcm69bRMnOpm-9xotE5-6" edge="1">
          <mxGeometry width="50" height="50" relative="1" as="geometry">
            <mxPoint x="110" y="460" as="sourcePoint" />
            <mxPoint x="380" y="485" as="targetPoint" />
          </mxGeometry>
        </mxCell>
        <mxCell id="L30OLy0S2f7lS_1zyStr-1" value="&amp;lt;&amp;lt;include&amp;gt;&amp;gt;" style="html=1;verticalAlign=bottom;endArrow=open;dashed=1;endSize=8;curved=0;rounded=0;entryX=1;entryY=1;entryDx=0;entryDy=0;" parent="1" source="bNcm69bRMnOpm-9xotE5-25" target="L30OLy0S2f7lS_1zyStr-5" edge="1">
          <mxGeometry x="-0.4944" y="-15" relative="1" as="geometry">
            <mxPoint x="155.49" y="120" as="sourcePoint" />
            <mxPoint x="75.49" y="120" as="targetPoint" />
            <mxPoint as="offset" />
          </mxGeometry>
        </mxCell>
        <mxCell id="L30OLy0S2f7lS_1zyStr-2" value="Delete&lt;span style=&quot;background-color: initial;&quot;&gt;&amp;nbsp;Images&lt;/span&gt;" style="ellipse;whiteSpace=wrap;html=1;" parent="1" vertex="1">
          <mxGeometry x="260" y="300" width="130" height="47.18" as="geometry" />
        </mxCell>
        <mxCell id="L30OLy0S2f7lS_1zyStr-5" value="&lt;span style=&quot;background-color: initial;&quot;&gt;Add Images&lt;/span&gt;" style="ellipse;whiteSpace=wrap;html=1;" parent="1" vertex="1">
          <mxGeometry x="266.57" y="240" width="130" height="47.18" as="geometry" />
        </mxCell>
        <mxCell id="L30OLy0S2f7lS_1zyStr-6" value="&amp;lt;&amp;lt;include&amp;gt;&amp;gt;" style="html=1;verticalAlign=bottom;endArrow=open;dashed=1;endSize=8;curved=0;rounded=0;exitX=0.075;exitY=0.735;exitDx=0;exitDy=0;exitPerimeter=0;" parent="1" source="bNcm69bRMnOpm-9xotE5-25" target="L30OLy0S2f7lS_1zyStr-2" edge="1">
          <mxGeometry x="-0.4736" y="27" relative="1" as="geometry">
            <mxPoint x="435" y="352" as="sourcePoint" />
            <mxPoint x="362" y="333" as="targetPoint" />
            <mxPoint as="offset" />
          </mxGeometry>
        </mxCell>
        <mxCell id="OVYkTUFSf-rV6GSuppvb-1" value="" style="endArrow=none;html=1;rounded=0;" edge="1" parent="1">
          <mxGeometry width="50" height="50" relative="1" as="geometry">
            <mxPoint x="100" y="419.9971070095395" as="sourcePoint" />
            <mxPoint x="380" y="40" as="targetPoint" />
          </mxGeometry>
        </mxCell>
        <mxCell id="OVYkTUFSf-rV6GSuppvb-3" value="Manage Faculty Details" style="ellipse;whiteSpace=wrap;html=1;" vertex="1" parent="1">
          <mxGeometry x="365" y="380" width="160" height="57.18" as="geometry" />
        </mxCell>
      </root>
    </mxGraphModel>
  </diagram>
</mxfile>
